<mxfile host="app.diagrams.net" modified="2024-07-06T17:00:53.127Z" agent="Mozilla/5.0 (Windows NT 10.0; Win64; x64) AppleWebKit/537.36 (KHTML, like Gecko) Chrome/126.0.0.0 Safari/537.36" etag="bqtSi3RHexPO4tSSwDlI" version="24.6.4" type="device">
  <diagram id="07fea595-8f29-1299-0266-81d95cde20df" name="Page-1">
    <mxGraphModel dx="378" dy="513" grid="1" gridSize="10" guides="1" tooltips="1" connect="1" arrows="1" fold="1" page="1" pageScale="1" pageWidth="1169" pageHeight="827" background="#ffffff" math="0" shadow="0">
      <root>
        <mxCell id="0" />
        <mxCell id="1" parent="0" />
        <mxCell id="k4BbUaHCwSgezbctOqtj-11" value="" style="rounded=0;whiteSpace=wrap;html=1;" parent="1" vertex="1">
          <mxGeometry x="150" y="90" width="200" height="780" as="geometry" />
        </mxCell>
        <mxCell id="k4BbUaHCwSgezbctOqtj-12" value="" style="rounded=0;whiteSpace=wrap;html=1;" parent="1" vertex="1">
          <mxGeometry x="350" y="90" width="200" height="780" as="geometry" />
        </mxCell>
        <mxCell id="k4BbUaHCwSgezbctOqtj-13" value="" style="rounded=0;whiteSpace=wrap;html=1;" parent="1" vertex="1">
          <mxGeometry x="550" y="90" width="200" height="780" as="geometry" />
        </mxCell>
        <mxCell id="k4BbUaHCwSgezbctOqtj-14" value="" style="rounded=0;whiteSpace=wrap;html=1;" parent="1" vertex="1">
          <mxGeometry x="750" y="90" width="200" height="780" as="geometry" />
        </mxCell>
        <mxCell id="k4BbUaHCwSgezbctOqtj-15" value="Ured za zapošljavanje" style="rounded=0;whiteSpace=wrap;html=1;" parent="1" vertex="1">
          <mxGeometry x="350" y="60" width="200" height="30" as="geometry" />
        </mxCell>
        <mxCell id="k4BbUaHCwSgezbctOqtj-16" value="Nezaposlena osoba" style="rounded=0;whiteSpace=wrap;html=1;" parent="1" vertex="1">
          <mxGeometry x="150" y="60" width="200" height="30" as="geometry" />
        </mxCell>
        <mxCell id="k4BbUaHCwSgezbctOqtj-17" value="Sustav Ureda za zapošljavanje" style="rounded=0;whiteSpace=wrap;html=1;" parent="1" vertex="1">
          <mxGeometry x="550" y="60" width="200" height="30" as="geometry" />
        </mxCell>
        <mxCell id="k4BbUaHCwSgezbctOqtj-18" value="Administrator" style="rounded=0;whiteSpace=wrap;html=1;" parent="1" vertex="1">
          <mxGeometry x="750" y="60" width="200" height="30" as="geometry" />
        </mxCell>
        <mxCell id="k4BbUaHCwSgezbctOqtj-19" style="edgeStyle=orthogonalEdgeStyle;rounded=0;orthogonalLoop=1;jettySize=auto;html=1;exitX=0.5;exitY=1;exitDx=0;exitDy=0;entryX=0.5;entryY=0;entryDx=0;entryDy=0;" parent="1" source="k4BbUaHCwSgezbctOqtj-20" target="k4BbUaHCwSgezbctOqtj-22" edge="1">
          <mxGeometry relative="1" as="geometry" />
        </mxCell>
        <mxCell id="k4BbUaHCwSgezbctOqtj-20" value="" style="ellipse;whiteSpace=wrap;html=1;aspect=fixed;" parent="1" vertex="1">
          <mxGeometry x="635" y="110" width="30" height="30" as="geometry" />
        </mxCell>
        <mxCell id="k4BbUaHCwSgezbctOqtj-22" value="Prijava" style="rounded=1;whiteSpace=wrap;html=1;" parent="1" vertex="1">
          <mxGeometry x="610" y="160" width="80" height="25" as="geometry" />
        </mxCell>
        <mxCell id="k4BbUaHCwSgezbctOqtj-23" style="edgeStyle=orthogonalEdgeStyle;rounded=0;orthogonalLoop=1;jettySize=auto;html=1;exitX=0.5;exitY=1;exitDx=0;exitDy=0;entryX=0.5;entryY=0;entryDx=0;entryDy=0;" parent="1" source="k4BbUaHCwSgezbctOqtj-22" target="k4BbUaHCwSgezbctOqtj-27" edge="1">
          <mxGeometry relative="1" as="geometry">
            <mxPoint x="649.9999999999999" y="240" as="sourcePoint" />
          </mxGeometry>
        </mxCell>
        <mxCell id="k4BbUaHCwSgezbctOqtj-25" style="edgeStyle=orthogonalEdgeStyle;rounded=0;orthogonalLoop=1;jettySize=auto;html=1;exitX=1;exitY=0.5;exitDx=0;exitDy=0;entryX=1;entryY=0.5;entryDx=0;entryDy=0;" parent="1" edge="1">
          <mxGeometry relative="1" as="geometry">
            <Array as="points">
              <mxPoint x="740" y="290" />
              <mxPoint x="740" y="170" />
            </Array>
            <mxPoint x="635" y="289.9999999999999" as="sourcePoint" />
            <mxPoint x="692.8" y="170" as="targetPoint" />
          </mxGeometry>
        </mxCell>
        <mxCell id="k4BbUaHCwSgezbctOqtj-26" style="edgeStyle=orthogonalEdgeStyle;rounded=0;orthogonalLoop=1;jettySize=auto;html=1;exitX=0.5;exitY=1;exitDx=0;exitDy=0;" parent="1" source="k4BbUaHCwSgezbctOqtj-27" edge="1">
          <mxGeometry relative="1" as="geometry">
            <mxPoint x="649.9444444444445" y="340" as="targetPoint" />
          </mxGeometry>
        </mxCell>
        <mxCell id="k4BbUaHCwSgezbctOqtj-27" value="Provjera" style="rhombus;whiteSpace=wrap;html=1;" parent="1" vertex="1">
          <mxGeometry x="620" y="260" width="60" height="60" as="geometry" />
        </mxCell>
        <mxCell id="k4BbUaHCwSgezbctOqtj-28" value="Firma" style="rounded=0;whiteSpace=wrap;html=1;" parent="1" vertex="1">
          <mxGeometry x="950" y="60" width="200" height="30" as="geometry" />
        </mxCell>
        <mxCell id="k4BbUaHCwSgezbctOqtj-29" value="" style="rounded=0;whiteSpace=wrap;html=1;" parent="1" vertex="1">
          <mxGeometry x="950" y="90" width="200" height="780" as="geometry" />
        </mxCell>
        <mxCell id="k4BbUaHCwSgezbctOqtj-30" value="" style="ellipse;whiteSpace=wrap;html=1;aspect=fixed;fillColor=#000000;" parent="1" vertex="1">
          <mxGeometry x="640" y="115" width="20" height="20" as="geometry" />
        </mxCell>
        <mxCell id="k4BbUaHCwSgezbctOqtj-31" value="Neuspjeh" style="text;html=1;strokeColor=none;fillColor=none;align=center;verticalAlign=middle;whiteSpace=wrap;rounded=0;" parent="1" vertex="1">
          <mxGeometry x="680" y="250" width="50" height="30" as="geometry" />
        </mxCell>
        <mxCell id="k4BbUaHCwSgezbctOqtj-32" value="" style="endArrow=none;html=1;rounded=0;" parent="1" edge="1">
          <mxGeometry width="50" height="50" relative="1" as="geometry">
            <mxPoint x="650" y="340" as="sourcePoint" />
            <mxPoint x="710" y="340" as="targetPoint" />
          </mxGeometry>
        </mxCell>
        <mxCell id="k4BbUaHCwSgezbctOqtj-34" value="Uspjeh" style="text;html=1;strokeColor=none;fillColor=none;align=center;verticalAlign=middle;whiteSpace=wrap;rounded=0;" parent="1" vertex="1">
          <mxGeometry x="650" y="320" width="50" height="20" as="geometry" />
        </mxCell>
        <mxCell id="k4BbUaHCwSgezbctOqtj-37" style="edgeStyle=orthogonalEdgeStyle;rounded=0;orthogonalLoop=1;jettySize=auto;html=1;exitX=0.5;exitY=1;exitDx=0;exitDy=0;entryX=0.5;entryY=0;entryDx=0;entryDy=0;" parent="1" source="k4BbUaHCwSgezbctOqtj-38" target="k4BbUaHCwSgezbctOqtj-53" edge="1">
          <mxGeometry relative="1" as="geometry" />
        </mxCell>
        <mxCell id="k4BbUaHCwSgezbctOqtj-38" value="Funkcije upravljanja sustavom" style="rounded=1;whiteSpace=wrap;html=1;" parent="1" vertex="1">
          <mxGeometry x="780" y="355" width="140" height="40" as="geometry" />
        </mxCell>
        <mxCell id="k4BbUaHCwSgezbctOqtj-39" value="" style="endArrow=classic;html=1;rounded=0;entryX=1;entryY=0.5;entryDx=0;entryDy=0;" parent="1" target="4K4t0N0ljQZi-Vb2gh6m-15" edge="1">
          <mxGeometry width="50" height="50" relative="1" as="geometry">
            <mxPoint x="590" y="340" as="sourcePoint" />
            <mxPoint x="520" y="375" as="targetPoint" />
            <Array as="points">
              <mxPoint x="590" y="375" />
            </Array>
          </mxGeometry>
        </mxCell>
        <mxCell id="k4BbUaHCwSgezbctOqtj-40" value="" style="endArrow=classic;html=1;rounded=0;entryX=0;entryY=0.5;entryDx=0;entryDy=0;" parent="1" target="k4BbUaHCwSgezbctOqtj-38" edge="1">
          <mxGeometry width="50" height="50" relative="1" as="geometry">
            <mxPoint x="710" y="340" as="sourcePoint" />
            <mxPoint x="700" y="390" as="targetPoint" />
            <Array as="points">
              <mxPoint x="710" y="375" />
            </Array>
          </mxGeometry>
        </mxCell>
        <mxCell id="k4BbUaHCwSgezbctOqtj-48" style="edgeStyle=orthogonalEdgeStyle;rounded=0;orthogonalLoop=1;jettySize=auto;html=1;exitX=0.5;exitY=1;exitDx=0;exitDy=0;entryX=0.5;entryY=0;entryDx=0;entryDy=0;" parent="1" target="k4BbUaHCwSgezbctOqtj-59" edge="1">
          <mxGeometry relative="1" as="geometry">
            <mxPoint x="450" y="550" as="sourcePoint" />
          </mxGeometry>
        </mxCell>
        <mxCell id="k4BbUaHCwSgezbctOqtj-52" style="edgeStyle=orthogonalEdgeStyle;rounded=0;orthogonalLoop=1;jettySize=auto;html=1;exitX=0.5;exitY=1;exitDx=0;exitDy=0;entryX=0.5;entryY=0;entryDx=0;entryDy=0;" parent="1" source="k4BbUaHCwSgezbctOqtj-53" target="k4BbUaHCwSgezbctOqtj-55" edge="1">
          <mxGeometry relative="1" as="geometry" />
        </mxCell>
        <mxCell id="k4BbUaHCwSgezbctOqtj-53" value="Funkcije upravljanja korisnicima" style="rounded=1;whiteSpace=wrap;html=1;" parent="1" vertex="1">
          <mxGeometry x="780" y="424" width="140" height="40" as="geometry" />
        </mxCell>
        <mxCell id="k4BbUaHCwSgezbctOqtj-54" style="edgeStyle=orthogonalEdgeStyle;rounded=0;orthogonalLoop=1;jettySize=auto;html=1;exitX=0.5;exitY=1;exitDx=0;exitDy=0;entryX=0.5;entryY=0;entryDx=0;entryDy=0;" parent="1" source="k4BbUaHCwSgezbctOqtj-55" target="k4BbUaHCwSgezbctOqtj-57" edge="1">
          <mxGeometry relative="1" as="geometry" />
        </mxCell>
        <mxCell id="k4BbUaHCwSgezbctOqtj-55" value="Upravljanje natječajima" style="rounded=1;whiteSpace=wrap;html=1;" parent="1" vertex="1">
          <mxGeometry x="780" y="490" width="140" height="40" as="geometry" />
        </mxCell>
        <mxCell id="k4BbUaHCwSgezbctOqtj-56" style="edgeStyle=orthogonalEdgeStyle;rounded=0;orthogonalLoop=1;jettySize=auto;html=1;exitX=0.5;exitY=1;exitDx=0;exitDy=0;entryX=1;entryY=0.25;entryDx=0;entryDy=0;" parent="1" source="k4BbUaHCwSgezbctOqtj-57" target="k4BbUaHCwSgezbctOqtj-64" edge="1">
          <mxGeometry relative="1" as="geometry" />
        </mxCell>
        <mxCell id="k4BbUaHCwSgezbctOqtj-57" value="Generiranje izvještaja" style="rounded=1;whiteSpace=wrap;html=1;" parent="1" vertex="1">
          <mxGeometry x="780" y="560" width="140" height="40" as="geometry" />
        </mxCell>
        <mxCell id="k4BbUaHCwSgezbctOqtj-60" style="edgeStyle=orthogonalEdgeStyle;rounded=0;orthogonalLoop=1;jettySize=auto;html=1;entryX=1;entryY=0.75;entryDx=0;entryDy=0;exitX=0.5;exitY=1;exitDx=0;exitDy=0;" parent="1" source="4K4t0N0ljQZi-Vb2gh6m-21" target="k4BbUaHCwSgezbctOqtj-64" edge="1">
          <mxGeometry relative="1" as="geometry" />
        </mxCell>
        <mxCell id="4K4t0N0ljQZi-Vb2gh6m-26" style="edgeStyle=none;curved=1;rounded=0;orthogonalLoop=1;jettySize=auto;html=1;fontSize=12;startSize=8;endSize=8;" edge="1" parent="1" source="k4BbUaHCwSgezbctOqtj-61" target="4K4t0N0ljQZi-Vb2gh6m-19">
          <mxGeometry relative="1" as="geometry" />
        </mxCell>
        <mxCell id="k4BbUaHCwSgezbctOqtj-61" value="Objava natječaja" style="rounded=1;whiteSpace=wrap;html=1;" parent="1" vertex="1">
          <mxGeometry x="982.5" y="358.75" width="135" height="32.5" as="geometry" />
        </mxCell>
        <mxCell id="k4BbUaHCwSgezbctOqtj-62" value="" style="endArrow=classic;html=1;rounded=0;entryX=0.5;entryY=0;entryDx=0;entryDy=0;" parent="1" target="k4BbUaHCwSgezbctOqtj-61" edge="1">
          <mxGeometry width="50" height="50" relative="1" as="geometry">
            <mxPoint x="710" y="340" as="sourcePoint" />
            <mxPoint x="790" y="430" as="targetPoint" />
            <Array as="points">
              <mxPoint x="1050" y="340" />
            </Array>
          </mxGeometry>
        </mxCell>
        <mxCell id="k4BbUaHCwSgezbctOqtj-63" style="edgeStyle=orthogonalEdgeStyle;rounded=0;orthogonalLoop=1;jettySize=auto;html=1;exitX=0.5;exitY=1;exitDx=0;exitDy=0;entryX=0.5;entryY=0;entryDx=0;entryDy=0;" parent="1" source="k4BbUaHCwSgezbctOqtj-64" target="k4BbUaHCwSgezbctOqtj-65" edge="1">
          <mxGeometry relative="1" as="geometry" />
        </mxCell>
        <mxCell id="k4BbUaHCwSgezbctOqtj-64" value="Odjava" style="rounded=1;whiteSpace=wrap;html=1;" parent="1" vertex="1">
          <mxGeometry x="610" y="770" width="80" height="25" as="geometry" />
        </mxCell>
        <mxCell id="k4BbUaHCwSgezbctOqtj-65" value="" style="ellipse;whiteSpace=wrap;html=1;aspect=fixed;" parent="1" vertex="1">
          <mxGeometry x="635" y="815" width="30" height="30" as="geometry" />
        </mxCell>
        <mxCell id="k4BbUaHCwSgezbctOqtj-66" value="" style="ellipse;whiteSpace=wrap;html=1;aspect=fixed;fillColor=#000000;" parent="1" vertex="1">
          <mxGeometry x="640" y="820" width="20" height="20" as="geometry" />
        </mxCell>
        <mxCell id="k4BbUaHCwSgezbctOqtj-71" style="edgeStyle=orthogonalEdgeStyle;rounded=0;orthogonalLoop=1;jettySize=auto;html=1;exitX=0.5;exitY=1;exitDx=0;exitDy=0;entryX=0;entryY=0.5;entryDx=0;entryDy=0;" parent="1" edge="1" source="4K4t0N0ljQZi-Vb2gh6m-28">
          <mxGeometry relative="1" as="geometry">
            <mxPoint x="450" y="770" as="sourcePoint" />
            <mxPoint x="610" y="782.5" as="targetPoint" />
            <Array as="points">
              <mxPoint x="450" y="783" />
            </Array>
          </mxGeometry>
        </mxCell>
        <mxCell id="k4BbUaHCwSgezbctOqtj-72" style="edgeStyle=orthogonalEdgeStyle;rounded=0;orthogonalLoop=1;jettySize=auto;html=1;exitX=0.5;exitY=1;exitDx=0;exitDy=0;entryX=0.5;entryY=0;entryDx=0;entryDy=0;" parent="1" target="k4BbUaHCwSgezbctOqtj-73" edge="1">
          <mxGeometry relative="1" as="geometry">
            <mxPoint x="450" y="605" as="sourcePoint" />
          </mxGeometry>
        </mxCell>
        <mxCell id="k4BbUaHCwSgezbctOqtj-92" value="" style="edgeStyle=orthogonalEdgeStyle;rounded=0;orthogonalLoop=1;jettySize=auto;html=1;" parent="1" target="k4BbUaHCwSgezbctOqtj-77" edge="1">
          <mxGeometry relative="1" as="geometry">
            <mxPoint x="450" y="720" as="sourcePoint" />
          </mxGeometry>
        </mxCell>
        <mxCell id="k4BbUaHCwSgezbctOqtj-93" value="" style="edgeStyle=orthogonalEdgeStyle;rounded=0;orthogonalLoop=1;jettySize=auto;html=1;" parent="1" target="k4BbUaHCwSgezbctOqtj-77" edge="1">
          <mxGeometry relative="1" as="geometry">
            <mxPoint x="450" y="720" as="sourcePoint" />
          </mxGeometry>
        </mxCell>
        <mxCell id="k4BbUaHCwSgezbctOqtj-84" value="Uspjeh" style="text;html=1;strokeColor=none;fillColor=none;align=center;verticalAlign=middle;whiteSpace=wrap;rounded=0;" parent="1" vertex="1">
          <mxGeometry x="240" y="705" width="80" height="20" as="geometry" />
        </mxCell>
        <mxCell id="k4BbUaHCwSgezbctOqtj-86" value="" style="endArrow=classic;html=1;rounded=0;exitX=-0.005;exitY=0.653;exitDx=0;exitDy=0;exitPerimeter=0;" parent="1" target="k4BbUaHCwSgezbctOqtj-81" edge="1">
          <mxGeometry width="50" height="50" relative="1" as="geometry">
            <mxPoint x="379.29999999999995" y="656.1199999999999" as="sourcePoint" />
            <mxPoint x="630" y="680" as="targetPoint" />
          </mxGeometry>
        </mxCell>
        <mxCell id="4K4t0N0ljQZi-Vb2gh6m-36" style="edgeStyle=none;curved=1;rounded=0;orthogonalLoop=1;jettySize=auto;html=1;fontSize=12;startSize=8;endSize=8;" edge="1" parent="1" source="4K4t0N0ljQZi-Vb2gh6m-9" target="4K4t0N0ljQZi-Vb2gh6m-10">
          <mxGeometry relative="1" as="geometry" />
        </mxCell>
        <mxCell id="4K4t0N0ljQZi-Vb2gh6m-9" value="Prijava na sustav" style="rounded=1;whiteSpace=wrap;html=1;" vertex="1" parent="1">
          <mxGeometry x="180" y="360" width="140" height="30" as="geometry" />
        </mxCell>
        <mxCell id="4K4t0N0ljQZi-Vb2gh6m-37" style="edgeStyle=none;curved=1;rounded=0;orthogonalLoop=1;jettySize=auto;html=1;fontSize=12;startSize=8;endSize=8;" edge="1" parent="1" source="4K4t0N0ljQZi-Vb2gh6m-10" target="4K4t0N0ljQZi-Vb2gh6m-11">
          <mxGeometry relative="1" as="geometry" />
        </mxCell>
        <mxCell id="4K4t0N0ljQZi-Vb2gh6m-10" value="Pregled otvorenih natječaja" style="rounded=1;whiteSpace=wrap;html=1;" vertex="1" parent="1">
          <mxGeometry x="180" y="420" width="140" height="30" as="geometry" />
        </mxCell>
        <mxCell id="4K4t0N0ljQZi-Vb2gh6m-38" style="edgeStyle=none;curved=1;rounded=0;orthogonalLoop=1;jettySize=auto;html=1;fontSize=12;startSize=8;endSize=8;" edge="1" parent="1" source="4K4t0N0ljQZi-Vb2gh6m-11" target="4K4t0N0ljQZi-Vb2gh6m-14">
          <mxGeometry relative="1" as="geometry" />
        </mxCell>
        <mxCell id="4K4t0N0ljQZi-Vb2gh6m-11" value="Odabir natječaja" style="rounded=1;whiteSpace=wrap;html=1;" vertex="1" parent="1">
          <mxGeometry x="180" y="480" width="140" height="30" as="geometry" />
        </mxCell>
        <mxCell id="4K4t0N0ljQZi-Vb2gh6m-12" value="Potvrda prijave" style="rounded=1;whiteSpace=wrap;html=1;" vertex="1" parent="1">
          <mxGeometry x="180" y="740" width="140" height="30" as="geometry" />
        </mxCell>
        <mxCell id="4K4t0N0ljQZi-Vb2gh6m-13" value="Slanje prijave" style="rounded=1;whiteSpace=wrap;html=1;" vertex="1" parent="1">
          <mxGeometry x="180" y="580" width="140" height="30" as="geometry" />
        </mxCell>
        <mxCell id="4K4t0N0ljQZi-Vb2gh6m-39" style="edgeStyle=none;curved=1;rounded=0;orthogonalLoop=1;jettySize=auto;html=1;fontSize=12;startSize=8;endSize=8;" edge="1" parent="1" source="4K4t0N0ljQZi-Vb2gh6m-14" target="4K4t0N0ljQZi-Vb2gh6m-13">
          <mxGeometry relative="1" as="geometry" />
        </mxCell>
        <mxCell id="4K4t0N0ljQZi-Vb2gh6m-14" value="Popunjavanje prijave" style="rounded=1;whiteSpace=wrap;html=1;" vertex="1" parent="1">
          <mxGeometry x="180" y="530" width="140" height="30" as="geometry" />
        </mxCell>
        <mxCell id="4K4t0N0ljQZi-Vb2gh6m-31" style="edgeStyle=none;curved=1;rounded=0;orthogonalLoop=1;jettySize=auto;html=1;fontSize=12;startSize=8;endSize=8;" edge="1" parent="1" source="4K4t0N0ljQZi-Vb2gh6m-15" target="4K4t0N0ljQZi-Vb2gh6m-18">
          <mxGeometry relative="1" as="geometry" />
        </mxCell>
        <mxCell id="4K4t0N0ljQZi-Vb2gh6m-15" value="Pregled korisnika" style="rounded=1;whiteSpace=wrap;html=1;" vertex="1" parent="1">
          <mxGeometry x="380" y="360" width="140" height="30" as="geometry" />
        </mxCell>
        <mxCell id="4K4t0N0ljQZi-Vb2gh6m-32" style="edgeStyle=none;curved=1;rounded=0;orthogonalLoop=1;jettySize=auto;html=1;fontSize=12;startSize=8;endSize=8;" edge="1" parent="1" source="4K4t0N0ljQZi-Vb2gh6m-18" target="4K4t0N0ljQZi-Vb2gh6m-30">
          <mxGeometry relative="1" as="geometry" />
        </mxCell>
        <mxCell id="4K4t0N0ljQZi-Vb2gh6m-18" value="Potvrda korisnika" style="rounded=1;whiteSpace=wrap;html=1;" vertex="1" parent="1">
          <mxGeometry x="380" y="420" width="140" height="30" as="geometry" />
        </mxCell>
        <mxCell id="4K4t0N0ljQZi-Vb2gh6m-41" style="edgeStyle=none;curved=1;rounded=0;orthogonalLoop=1;jettySize=auto;html=1;fontSize=12;startSize=8;endSize=8;" edge="1" parent="1" source="4K4t0N0ljQZi-Vb2gh6m-19" target="4K4t0N0ljQZi-Vb2gh6m-20">
          <mxGeometry relative="1" as="geometry" />
        </mxCell>
        <mxCell id="4K4t0N0ljQZi-Vb2gh6m-19" value="Pregled prijava" style="rounded=1;whiteSpace=wrap;html=1;" vertex="1" parent="1">
          <mxGeometry x="982.5" y="427.75" width="135" height="32.5" as="geometry" />
        </mxCell>
        <mxCell id="4K4t0N0ljQZi-Vb2gh6m-42" style="edgeStyle=none;curved=1;rounded=0;orthogonalLoop=1;jettySize=auto;html=1;fontSize=12;startSize=8;endSize=8;" edge="1" parent="1" source="4K4t0N0ljQZi-Vb2gh6m-20" target="4K4t0N0ljQZi-Vb2gh6m-21">
          <mxGeometry relative="1" as="geometry" />
        </mxCell>
        <mxCell id="4K4t0N0ljQZi-Vb2gh6m-20" value="Odabir kandidata" style="rounded=1;whiteSpace=wrap;html=1;" vertex="1" parent="1">
          <mxGeometry x="982.5" y="490" width="135" height="32.5" as="geometry" />
        </mxCell>
        <mxCell id="4K4t0N0ljQZi-Vb2gh6m-21" value="Obavijest o izboru" style="rounded=1;whiteSpace=wrap;html=1;" vertex="1" parent="1">
          <mxGeometry x="982.5" y="568.75" width="135" height="32.5" as="geometry" />
        </mxCell>
        <mxCell id="4K4t0N0ljQZi-Vb2gh6m-28" value="Upravljanje izvještajima" style="rounded=1;whiteSpace=wrap;html=1;" vertex="1" parent="1">
          <mxGeometry x="380" y="601.25" width="140" height="30" as="geometry" />
        </mxCell>
        <mxCell id="4K4t0N0ljQZi-Vb2gh6m-34" style="edgeStyle=none;curved=1;rounded=0;orthogonalLoop=1;jettySize=auto;html=1;fontSize=12;startSize=8;endSize=8;" edge="1" parent="1" source="4K4t0N0ljQZi-Vb2gh6m-29" target="4K4t0N0ljQZi-Vb2gh6m-28">
          <mxGeometry relative="1" as="geometry" />
        </mxCell>
        <mxCell id="4K4t0N0ljQZi-Vb2gh6m-29" value="Potvrda firmi" style="rounded=1;whiteSpace=wrap;html=1;" vertex="1" parent="1">
          <mxGeometry x="380" y="538.75" width="140" height="30" as="geometry" />
        </mxCell>
        <mxCell id="4K4t0N0ljQZi-Vb2gh6m-33" style="edgeStyle=none;curved=1;rounded=0;orthogonalLoop=1;jettySize=auto;html=1;fontSize=12;startSize=8;endSize=8;" edge="1" parent="1" source="4K4t0N0ljQZi-Vb2gh6m-30" target="4K4t0N0ljQZi-Vb2gh6m-29">
          <mxGeometry relative="1" as="geometry" />
        </mxCell>
        <mxCell id="4K4t0N0ljQZi-Vb2gh6m-30" value="Pregled firmi" style="rounded=1;whiteSpace=wrap;html=1;" vertex="1" parent="1">
          <mxGeometry x="380" y="480" width="140" height="30" as="geometry" />
        </mxCell>
        <mxCell id="4K4t0N0ljQZi-Vb2gh6m-35" value="" style="endArrow=classic;html=1;rounded=0;entryX=0.5;entryY=0;entryDx=0;entryDy=0;exitX=0;exitY=1;exitDx=0;exitDy=0;" edge="1" parent="1" source="k4BbUaHCwSgezbctOqtj-34" target="4K4t0N0ljQZi-Vb2gh6m-9">
          <mxGeometry width="50" height="50" relative="1" as="geometry">
            <mxPoint x="500" y="240" as="sourcePoint" />
            <mxPoint x="910" y="269" as="targetPoint" />
            <Array as="points">
              <mxPoint x="250" y="340" />
            </Array>
          </mxGeometry>
        </mxCell>
        <mxCell id="4K4t0N0ljQZi-Vb2gh6m-44" style="edgeStyle=orthogonalEdgeStyle;rounded=0;orthogonalLoop=1;jettySize=auto;html=1;exitX=0.5;exitY=1;exitDx=0;exitDy=0;entryX=0;entryY=0.75;entryDx=0;entryDy=0;" edge="1" parent="1" source="4K4t0N0ljQZi-Vb2gh6m-12">
          <mxGeometry relative="1" as="geometry">
            <mxPoint x="250" y="720" as="sourcePoint" />
            <mxPoint x="610" y="778.75" as="targetPoint" />
            <Array as="points">
              <mxPoint x="250" y="791" />
              <mxPoint x="600" y="791" />
              <mxPoint x="600" y="779" />
            </Array>
          </mxGeometry>
        </mxCell>
        <mxCell id="4K4t0N0ljQZi-Vb2gh6m-47" style="edgeStyle=none;curved=1;rounded=0;orthogonalLoop=1;jettySize=auto;html=1;fontSize=12;startSize=8;endSize=8;" edge="1" parent="1" source="4K4t0N0ljQZi-Vb2gh6m-45" target="4K4t0N0ljQZi-Vb2gh6m-12">
          <mxGeometry relative="1" as="geometry" />
        </mxCell>
        <mxCell id="4K4t0N0ljQZi-Vb2gh6m-45" value="Provjera" style="rhombus;whiteSpace=wrap;html=1;" vertex="1" parent="1">
          <mxGeometry x="220" y="645" width="60" height="60" as="geometry" />
        </mxCell>
        <mxCell id="4K4t0N0ljQZi-Vb2gh6m-50" value="" style="edgeStyle=orthogonalEdgeStyle;rounded=0;orthogonalLoop=1;jettySize=auto;html=1;exitX=0.5;exitY=0;exitDx=0;exitDy=0;entryX=0;entryY=0.5;entryDx=0;entryDy=0;" edge="1" parent="1" source="4K4t0N0ljQZi-Vb2gh6m-45" target="4K4t0N0ljQZi-Vb2gh6m-14">
          <mxGeometry relative="1" as="geometry">
            <mxPoint x="250" y="645" as="sourcePoint" />
            <mxPoint x="180" y="545" as="targetPoint" />
            <Array as="points">
              <mxPoint x="160" y="645" />
              <mxPoint x="160" y="545" />
            </Array>
          </mxGeometry>
        </mxCell>
        <mxCell id="k4BbUaHCwSgezbctOqtj-85" value="Neuspjeh" style="text;html=1;strokeColor=none;fillColor=none;align=center;verticalAlign=middle;whiteSpace=wrap;rounded=0;" parent="1" vertex="1">
          <mxGeometry x="160" y="625" width="90" height="20" as="geometry" />
        </mxCell>
        <mxCell id="4K4t0N0ljQZi-Vb2gh6m-51" style="edgeStyle=none;curved=1;rounded=0;orthogonalLoop=1;jettySize=auto;html=1;fontSize=12;startSize=8;endSize=8;exitX=0.5;exitY=1;exitDx=0;exitDy=0;entryX=0.5;entryY=0;entryDx=0;entryDy=0;" edge="1" parent="1" source="4K4t0N0ljQZi-Vb2gh6m-13" target="4K4t0N0ljQZi-Vb2gh6m-45">
          <mxGeometry relative="1" as="geometry">
            <mxPoint x="260" y="570" as="sourcePoint" />
            <mxPoint x="260" y="590" as="targetPoint" />
          </mxGeometry>
        </mxCell>
      </root>
    </mxGraphModel>
  </diagram>
</mxfile>
